<svg xmlns="http://www.w3.org/2000/svg" width="750" height="1000" viewBox="0 0 750 1000"><title>Cook in the garden — A+B+C layout</title><rect width="750" height="1000" fill="#faf9f4"/><text x="70" y="65" font-size="27" fill="#526353" font-family="Arial,sans-serif">Cook in the garden</text><polygon points="104,126 626,126 626,275 639,275 639,809 334,809 334,716 104,716" fill="#eee9df" stroke="#247553" stroke-width="4"/><rect x="310" y="275" width="33" height="57" fill="#74796e"/><rect x="600" y="275" width="39" height="42" fill="#74796e"/><rect x="620" y="317" width="19" height="347" fill="#74796e"/><rect x="334" y="667" width="43" height="142" fill="#74796e"/><rect x="377" y="799" width="41" height="10" fill="#74796e"/><rect x="478" y="799" width="125" height="10" fill="#74796e"/><rect x="343" y="275" width="91" height="42" fill="none" stroke="#b35b3c" stroke-width="2.5" stroke-dasharray="7 5"/><rect x="516" y="275" width="84" height="42" fill="none" stroke="#b35b3c" stroke-width="2.5" stroke-dasharray="7 5"/><rect x="334" y="332" width="43" height="131" fill="none" stroke="#b35b3c" stroke-width="2.5" stroke-dasharray="7 5"/><path d="M434 284H516M341 463V667" fill="none" stroke="#b35b3c" stroke-width="3" stroke-dasharray="7 5"/><rect x="115" y="329" width="43" height="101" rx="3" fill="#b6bba6" stroke="#7c7868" stroke-width="1.6"/><rect x="115" y="444" width="43" height="92" rx="3" fill="#5e665d" stroke="#7c7868" stroke-width="1.6"/><circle cx="136.5" cy="467" r="8" fill="none" stroke="#f7f4e9" stroke-width="2"/><circle cx="136.5" cy="490" r="8" fill="none" stroke="#f7f4e9" stroke-width="2"/><circle cx="136.5" cy="513" r="8" fill="none" stroke="#f7f4e9" stroke-width="2"/><rect x="115" y="550" width="43" height="112" rx="3" fill="#b6bba6" stroke="#7c7868" stroke-width="1.6"/><rect x="228" y="426" width="60" height="161" rx="3" fill="#cbb48f" stroke="#7c7868" stroke-width="1.6"/><rect x="565" y="346" width="55" height="305" rx="3" fill="#b6bba6" stroke="#7c7868" stroke-width="1.6"/><rect x="419" y="451" width="76" height="181" rx="3" fill="#b99c76" stroke="#7c7868" stroke-width="1.6"/><rect x="380" y="462" width="30" height="28" rx="7" fill="#ddd0b9" stroke="#7c7868" stroke-width="1.6"/><rect x="508" y="462" width="30" height="28" rx="7" fill="#ddd0b9" stroke="#7c7868" stroke-width="1.6"/><rect x="380" y="527" width="30" height="28" rx="7" fill="#ddd0b9" stroke="#7c7868" stroke-width="1.6"/><rect x="508" y="527" width="30" height="28" rx="7" fill="#ddd0b9" stroke="#7c7868" stroke-width="1.6"/><rect x="380" y="592" width="30" height="28" rx="7" fill="#ddd0b9" stroke="#7c7868" stroke-width="1.6"/><rect x="508" y="592" width="30" height="28" rx="7" fill="#ddd0b9" stroke="#7c7868" stroke-width="1.6"/><rect x="442" y="411" width="30" height="28" rx="7" fill="#ddd0b9" stroke="#7c7868" stroke-width="1.6"/><rect x="442" y="645" width="30" height="28" rx="7" fill="#ddd0b9" stroke="#7c7868" stroke-width="1.6"/><rect x="373" y="150" width="190" height="37" rx="3" fill="#c8c9b8" stroke="#7c7868" stroke-width="1.6"/><rect x="423" y="207" width="95" height="35" rx="3" fill="#b99c76" stroke="#7c7868" stroke-width="1.6"/><rect x="435" y="249" width="30" height="28" rx="7" fill="#ddd0b9" stroke="#7c7868" stroke-width="1.6"/><rect x="482" y="249" width="30" height="28" rx="7" fill="#ddd0b9" stroke="#7c7868" stroke-width="1.6"/><text x="63" y="421" font-size="24" fill="#526353" font-family="Arial,sans-serif">A</text><text x="580" y="105" font-size="24" fill="#526353" font-family="Arial,sans-serif">B</text><text x="665" y="716" font-size="24" fill="#526353" font-family="Arial,sans-serif">C</text><text x="70" y="848" font-size="17" fill="#526353" font-family="Arial,sans-serif">Green = confirmed envelope · Rust dashes = proposed opening</text><text x="70" y="881" font-size="17" fill="#526353" font-family="Arial,sans-serif">A · kitchen facing the garden</text><text x="70" y="905" font-size="17" fill="#526353" font-family="Arial,sans-serif">B · breakfast and coffee</text><text x="70" y="929" font-size="17" fill="#526353" font-family="Arial,sans-serif">C · dining and a serving wall</text><text x="70" y="970" font-size="15" fill="#526353" font-family="Arial,sans-serif">Openings, supports and furniture fit need verification.</text></svg>