<svg xmlns="http://www.w3.org/2000/svg" width="750" height="900" viewBox="0 0 750 900"><title>Layout 2: garden banquette in west wing; reading bench in north return</title><rect width="750" height="900" fill="#faf9f5"/><g font-family="Arial,sans-serif"><path d="M104 126H626V275H310V332H334V716H104Z" fill="#e1e9dc"/><path d="M377 317H620V664H639V809H377Z" fill="#ece7de"/><g fill="#727872"><path d="M310 275H434V317H377V463H334V332H310Z"/><path d="M516 275H639V664H620V317H516Z"/><path d="M334 667H377V758H418V809H334Z"/><path d="M478 799H603V809H478Z"/></g><g fill="none" stroke="#777f76" stroke-width="2"><path d="M434 284H516M434 293H516M341 463V667M350 463V667"/><path d="M377 758H418M478 758H603"/></g><path d="M334 716H104V126H626V275" fill="none" stroke="#247553" stroke-width="5"/><path d="M104 716H334" stroke="#247553" stroke-width="5"/><g fill="#b6c3ac"><rect x="175" y="122" width="6" height="8"/><rect x="249" y="122" width="6" height="8"/><rect x="324" y="122" width="6" height="8"/><rect x="400" y="122" width="6" height="8"/><rect x="476" y="122" width="6" height="8"/><rect x="551" y="122" width="6" height="8"/></g><rect x="566" y="518" width="54" height="99" fill="#eeeae3" stroke="#7b766b" stroke-width="2"/><circle cx="583" cy="537" r="8" fill="none" stroke="#7b766b"/><circle cx="605" cy="537" r="8" fill="none" stroke="#7b766b"/><circle cx="583" cy="565" r="8" fill="none" stroke="#7b766b"/><circle cx="605" cy="565" r="8" fill="none" stroke="#7b766b"/><circle cx="583" cy="593" r="8" fill="none" stroke="#7b766b"/><circle cx="605" cy="593" r="8" fill="none" stroke="#7b766b"/><rect x="566" y="350" width="54" height="153" fill="#a9b29c"/><rect x="566" y="632" width="54" height="32" fill="#a9b29c"/><rect x="440" y="469" width="68" height="198" rx="2" fill="#c5b18e" stroke="#8c7a5d" stroke-width="2"/><rect x="474" y="590" width="27" height="27" fill="#ecebe3" stroke="#8c7a5d"/><rect x="116" y="309" width="38" height="270" rx="6" fill="#a8b294" stroke="#6a7c5d" stroke-width="2"/><rect x="169" y="353" width="70" height="178" rx="9" fill="#ccb08e" stroke="#886f53" stroke-width="2"/><rect x="251" y="362" width="28" height="25" rx="7" fill="#e9dcc8" stroke="#9b8469" stroke-width="2"/><rect x="251" y="426" width="28" height="25" rx="7" fill="#e9dcc8" stroke="#9b8469" stroke-width="2"/><rect x="251" y="490" width="28" height="25" rx="7" fill="#e9dcc8" stroke="#9b8469" stroke-width="2"/><rect x="361" y="149" width="203" height="38" rx="7" fill="#a8b294" stroke="#6a7c5d" stroke-width="2"/><rect x="446" y="213" width="74" height="31" rx="9" fill="#d7c9b3" stroke="#9b8469"/><text x="104" y="88" font-size="20" fill="#247553">NORTH RETURN · B</text><text x="104" y="848" font-size="17" fill="#647065">Source proportions · furniture fit remains to be checked</text><circle cx="285" cy="635" r="18" fill="#247553"/><text x="285" y="642" text-anchor="middle" font-size="21" fill="white">A</text><circle cx="532" cy="713" r="18" fill="#61716a"/><text x="532" y="720" text-anchor="middle" font-size="21" fill="white">C</text><text x="398" y="389" font-size="18" fill="#647065">Prep / storage</text></g></svg>